<svg id="Layer_1" data-name="Layer 1" xmlns="http://www.w3.org/2000/svg" viewBox="0 0 500 500"><defs><style>.cls-1{fill:#fdda00;}.cls-2{fill:#fff;}.cls-3{fill:#88451f;opacity:0.3;}.cls-4{fill:none;stroke:#000;stroke-linecap:round;stroke-linejoin:round;stroke-width:20px;}</style></defs><title>beer-6</title><path class="cls-1" d="M358.86,197c-17.95-46.24-17.95-111-17.95-111H159.1s0,64.73-18,111c-14.85,38.26-48.29,159.4,89.21,169.84v92.94L157,488.8H343l-72.16-29.07v-93C407,355.62,373.67,235.09,358.86,197Z"/><path class="cls-2" d="M250,126.33h93.4c-2.47-23-2.49-40.35-2.49-40.35H159.1s0,17.3-2.5,40.35Z"/><path class="cls-2" d="M270.87,459.73v-93l-40.52.1v92.94L157,488.8H343Z"/><path class="cls-3" d="M262.87,361.24h40.36C401.12,334.8,372.36,231.7,358.86,197c-17.95-46.24-17.95-111-17.95-111H300.56s0,64.73,17.95,111C332,231.7,360.77,334.8,262.87,361.24Z"/><path class="cls-4" d="M190.9,86H159.1s0,64.73-18,111c-14.85,38.26-48.29,159.4,89.21,169.84v92.94L157,488.8H343l-72.16-29.07v-93c136.08-11.07,102.8-131.6,88-169.74-17.95-46.24-17.95-111-17.95-111H218.31"/><path class="cls-2" d="M313.19,54.67a24.13,24.13,0,0,0-3.83.39c0-.13,0-.26,0-.39A26.56,26.56,0,0,0,279,28.57a32,32,0,0,0-56.93,0,27,27,0,0,0-3.61-.27,26.56,26.56,0,0,0-26.74,26.37c0,.13,0,.26,0,.39a23.95,23.95,0,0,0-28.28,23.72,23.5,23.5,0,0,0,1.16,7.2H190.9v38.54a13.71,13.71,0,0,0,27.41,0V86H336.45a23.82,23.82,0,0,0,1.19-7.2A24.29,24.29,0,0,0,313.19,54.67Z"/><path class="cls-4" d="M313.19,54.67a24.13,24.13,0,0,0-3.83.39c0-.13,0-.26,0-.39A26.56,26.56,0,0,0,279,28.57a32,32,0,0,0-56.93,0,27,27,0,0,0-3.61-.27,26.56,26.56,0,0,0-26.74,26.37c0,.13,0,.26,0,.39a23.95,23.95,0,0,0-28.28,23.72,23.5,23.5,0,0,0,1.16,7.2H190.9v38.54a13.71,13.71,0,0,0,27.41,0V86H336.45a23.82,23.82,0,0,0,1.19-7.2A24.29,24.29,0,0,0,313.19,54.67Z"/></svg>