<svg id="Layer_1" data-name="Layer 1" xmlns="http://www.w3.org/2000/svg" viewBox="0 0 500 500"><defs><style>.cls-1{fill:#564f47;}.cls-2{fill:#b3814b;}.cls-3{fill:#fdda00;}.cls-4{fill:#1b1c1c;opacity:0.3;}.cls-5{fill:none;stroke:#000;stroke-linecap:round;stroke-linejoin:round;stroke-width:20px;}</style></defs><title>beer-keg</title><path class="cls-1" d="M373.86,413.09l12.8,19.74h97.8L466.67,381.2A378.6,378.6,0,0,1,373.86,413.09Z"/><path class="cls-2" d="M489.52,368.19V120.45S316.08.57,82.19,120.45V368.19C316.08,488.08,489.52,368.19,489.52,368.19Z"/><path class="cls-3" d="M393.64,80.18V408.46c13.68-3.57,26.07-7.59,37.07-11.67V91.85C419.71,87.77,407.32,83.75,393.64,80.18Z"/><path class="cls-4" d="M362.47,73.41c4.5,32.82,7.25,74,2.6,115.91C355,280.22,272.85,345.9,181.86,336.66c-32-3.25-65.26-8-99.67-14.59v46.12c69.92,35.84,134.36,50.16,190.46,52.75h0c110.78,5.12,188.67-35.7,210.52-48.77l.56-.33c2-1.2,3.46-2.12,4.41-2.74l.65-.42.4-.27.32-.22V120.45S441.69,87.46,362.47,73.41Z"/><path class="cls-5" d="M393.64,80.18V408.46c13.68-3.57,26.07-7.59,37.07-11.67V91.85C419.71,87.77,407.32,83.75,393.64,80.18Z"/><path class="cls-3" d="M134.47,97.11V391.53q18.87,7.2,37.07,12.44V84.67C159.41,88.2,147.05,92.31,134.47,97.11Z"/><path class="cls-3" d="M82.19,244.32h-55a16.73,16.73,0,0,0-16.73,16.73v44H42.81V274.67H82.19Z"/><path class="cls-1" d="M109.15,381.09,95.58,432.83h97.8l10.69-20.66A476.47,476.47,0,0,1,109.15,381.09Z"/><path class="cls-5" d="M109.15,381.09,95.58,432.83h97.8l10.69-20.66A476.47,476.47,0,0,1,109.15,381.09Z"/><path class="cls-5" d="M373.86,413.09l12.8,19.74h97.8L466.67,381.2A378.6,378.6,0,0,1,373.86,413.09Z"/><line class="cls-5" x1="489.52" y1="244.32" x2="82.19" y2="244.32"/><path class="cls-5" d="M489.52,175.12s-217.82-65.22-407.33,0"/><path class="cls-5" d="M489.52,313.53s-217.82,65.21-407.33,0"/><path class="cls-5" d="M489.52,368.19V120.45S316.08.57,82.19,120.45V368.19C316.08,488.08,489.52,368.19,489.52,368.19Z"/><path class="cls-5" d="M134.47,97.11V391.53q18.87,7.2,37.07,12.44V84.67C159.41,88.2,147.05,92.31,134.47,97.11Z"/><path class="cls-5" d="M82.19,244.32h-55a16.73,16.73,0,0,0-16.73,16.73v44H42.81V274.67H82.19Z"/><line class="cls-5" x1="32.46" y1="244.32" x2="32.46" y2="219.36"/><line class="cls-5" x1="10.48" y1="219.36" x2="53.15" y2="219.36"/></svg>