<svg id="Layer_1" data-name="Layer 1" xmlns="http://www.w3.org/2000/svg" viewBox="0 0 500 500"><defs><style>.cls-1{fill:#fdda00;}.cls-2{fill:#fff;}.cls-3{fill:#88451f;opacity:0.3;}.cls-4{fill:none;stroke:#000;stroke-linecap:round;stroke-linejoin:round;stroke-width:20px;}</style></defs><title>beer-4</title><path class="cls-1" d="M280.09,373.1a240.78,240.78,0,0,0,34.65-6.77c191.76-52.63,45.67-258.64,45.67-258.64H139.59S-6.5,313.7,185.26,366.33a240.78,240.78,0,0,0,34.65,6.77c4.27,7.37,9.57,20.22,9.57,39.07v47.71l-74.34,29.45H343.62l-73.1-29.45V412.17C270.52,393.32,275.82,380.47,280.09,373.1Z"/><path class="cls-2" d="M386.24,152.48a350.78,350.78,0,0,0-25.83-44.79H139.59a350.78,350.78,0,0,0-25.83,44.79Z"/><path class="cls-3" d="M360.41,107.69H319.54S464,311.46,276.87,365.45l11.63,6.33a237.24,237.24,0,0,0,26.24-5.45C506.5,313.7,360.41,107.69,360.41,107.69Z"/><path class="cls-2" d="M280.09,373.1H219.91c4.27,7.37,9.57,20.22,9.57,39.07v47.71l-74.34,29.45H343.62l-73.1-29.45V412.17C270.52,393.32,275.82,380.47,280.09,373.1Z"/><path class="cls-4" d="M173,107.69H139.59S-6.5,313.7,185.26,366.33a240.78,240.78,0,0,0,34.65,6.77c4.27,7.37,9.57,20.22,9.57,39.07v47.71l-74.34,29.45H343.62l-73.1-29.45V412.17c0-18.85,5.3-31.7,9.57-39.07a240.78,240.78,0,0,0,34.65-6.77c191.76-52.63,45.67-258.64,45.67-258.64H208.35"/><path class="cls-2" d="M330.89,67a32.43,32.43,0,0,0-5,.49c0-.16,0-.33,0-.49a34.34,34.34,0,0,0-34.53-34.15,35.6,35.6,0,0,0-4.66.35,41.3,41.3,0,0,0-73.53,0,35.89,35.89,0,0,0-4.67-.35A34.34,34.34,0,0,0,174,67c0,.16,0,.33,0,.49a32.43,32.43,0,0,0-5-.49,31.39,31.39,0,0,0-31.57,31.21,30.52,30.52,0,0,0,1.5,9.32H173v49.9a17.7,17.7,0,0,0,35.4,0v-49.9H360.92a30.59,30.59,0,0,0,1.54-9.32A31.39,31.39,0,0,0,330.89,67Z"/><path class="cls-4" d="M330.89,67a32.43,32.43,0,0,0-5,.49c0-.16,0-.33,0-.49a34.34,34.34,0,0,0-34.53-34.15,35.6,35.6,0,0,0-4.66.35,41.3,41.3,0,0,0-73.53,0,35.89,35.89,0,0,0-4.67-.35A34.34,34.34,0,0,0,174,67c0,.16,0,.33,0,.49a32.43,32.43,0,0,0-5-.49,31.39,31.39,0,0,0-31.57,31.21,30.52,30.52,0,0,0,1.5,9.32H173v49.9a17.7,17.7,0,0,0,35.4,0v-49.9H360.92a30.59,30.59,0,0,0,1.54-9.32A31.39,31.39,0,0,0,330.89,67Z"/></svg>