<svg id="Layer_1" data-name="Layer 1" xmlns="http://www.w3.org/2000/svg" viewBox="0 0 500 500"><defs><style>.cls-1{fill:#fff;}.cls-1,.cls-4{stroke:#000;stroke-width:20px;}.cls-1,.cls-4,.cls-5{stroke-linecap:round;stroke-linejoin:round;}.cls-2{fill:#fdda00;}.cls-3{fill:#88451f;opacity:0.3;}.cls-4,.cls-5{fill:none;}.cls-5{stroke:#2f2f31;stroke-width:19.85px;}</style></defs><title>barley</title><line class="cls-1" x1="250" y1="489.14" x2="250" y2="215.99"/><path class="cls-2" d="M133.85,308.63v39.56a85,85,0,0,0,46.25,75.69L250,459.72V441.88a116.56,116.56,0,0,0-59.74-101.77Z"/><path class="cls-2" d="M133.85,216v39.56a85,85,0,0,0,46.25,75.69L250,367.08V349.24a116.56,116.56,0,0,0-59.74-101.77Z"/><path class="cls-2" d="M133.85,123.35v39.56A85,85,0,0,0,180.1,238.6L250,274.44V256.6a116.56,116.56,0,0,0-59.74-101.77Z"/><path class="cls-3" d="M190.26,340.11l-56.41-31.48v13.1l25.32,14.13A120.69,120.69,0,0,1,221,441.25v3.62l29,14.85V441.88A116.56,116.56,0,0,0,190.26,340.11Z"/><path class="cls-3" d="M190.26,247.47,133.85,216v9.8l25.32,14.14A120.68,120.68,0,0,1,221,345.31v6.92l29,14.85V349.24A116.56,116.56,0,0,0,190.26,247.47Z"/><path class="cls-3" d="M190.26,154.83l-56.41-31.48v6.51L159.17,144A120.68,120.68,0,0,1,221,249.38v10.21l29,14.85V256.6A116.56,116.56,0,0,0,190.26,154.83Z"/><path class="cls-2" d="M366.15,308.63v39.56a85,85,0,0,1-46.25,75.69L250,459.72V441.88a116.56,116.56,0,0,1,59.74-101.77Z"/><path class="cls-2" d="M366.15,216v39.56a85,85,0,0,1-46.25,75.69L250,367.08V349.24a116.56,116.56,0,0,1,59.74-101.77Z"/><path class="cls-2" d="M366.15,123.35v39.56A85,85,0,0,1,319.9,238.6L250,274.44V256.6a116.56,116.56,0,0,1,59.74-101.77Z"/><path class="cls-3" d="M339.68,323.4v24.79a85.06,85.06,0,0,1-46.24,75.69L250,446.15v13.57l69.9-35.84a85,85,0,0,0,46.25-75.69V308.63Z"/><path class="cls-3" d="M339.68,230.76v24.79a85.06,85.06,0,0,1-46.24,75.69L250,353.51v13.57l69.9-35.84a85,85,0,0,0,46.25-75.69V216Z"/><path class="cls-3" d="M339.68,138.12v24.79a85.06,85.06,0,0,1-46.24,75.69L250,260.87v13.57l69.9-35.84a85,85,0,0,0,46.25-75.69V123.35Z"/><path class="cls-2" d="M250,216c76.13-96.93,0-172,0-172S173.87,119.06,250,216Z"/><path class="cls-3" d="M250,43.94s-1.36,1.36-3.5,3.87c10.91,39.07,17.93,95.94-.74,162.47,1.39,1.9,2.73,3.79,4.24,5.71C326.13,119.06,250,43.94,250,43.94Z"/><path class="cls-4" d="M133.85,308.63v39.56a85,85,0,0,0,46.25,75.69L250,459.72V441.88a116.56,116.56,0,0,0-59.74-101.77Z"/><path class="cls-4" d="M133.85,216v39.56a85,85,0,0,0,46.25,75.69L250,367.08V349.24a116.56,116.56,0,0,0-59.74-101.77Z"/><path class="cls-4" d="M133.85,123.35v39.56A85,85,0,0,0,180.1,238.6L250,274.44V256.6a116.56,116.56,0,0,0-59.74-101.77Z"/><path class="cls-4" d="M366.15,308.63v39.56a85,85,0,0,1-46.25,75.69L250,459.72V441.88a116.56,116.56,0,0,1,59.74-101.77Z"/><path class="cls-4" d="M366.15,216v39.56a85,85,0,0,1-46.25,75.69L250,367.08V349.24a116.56,116.56,0,0,1,59.74-101.77Z"/><path class="cls-4" d="M366.15,123.35v39.56A85,85,0,0,1,319.9,238.6L250,274.44V256.6a116.56,116.56,0,0,1,59.74-101.77Z"/><path class="cls-5" d="M250,216c76.13-96.93,0-172,0-172S173.87,119.06,250,216Z"/><path class="cls-4" d="M250,216c76.13-96.93,0-172,0-172S173.87,119.06,250,216Z"/><line class="cls-1" x1="133.85" y1="123.35" x2="133.85" y2="81.44"/><line class="cls-1" x1="366.15" y1="123.35" x2="366.15" y2="81.44"/><line class="cls-1" x1="250" y1="43.94" x2="250" y2="10.86"/></svg>