<svg id="Layer_1" data-name="Layer 1" xmlns="http://www.w3.org/2000/svg" viewBox="0 0 500 500"><defs><style>.cls-1{fill:#fdda00;}.cls-2,.cls-3,.cls-6{fill:#fff;}.cls-2,.cls-5,.cls-6{stroke:#000;}.cls-2{stroke-miterlimit:10;}.cls-4{fill:#88451f;opacity:0.3;}.cls-5{fill:none;}.cls-5,.cls-6{stroke-linecap:round;stroke-linejoin:round;stroke-width:20px;}.cls-7{fill:#80572c;}</style></defs><title>beer-can</title><path class="cls-1" d="M250,10.86h82.57l5.56,23.07S363.72,66.24,370,87V444.69s-15.58,44.45-37.39,44.45H167.43c-21.81,0-37.39-44.45-37.39-44.45V87c6.24-20.77,31.83-53.08,31.83-53.08l5.56-23.07Z"/><path class="cls-2" d="M332.57,10.86H167.43l-5.56,23.07S136.28,66.24,130,87H370c-6.24-20.77-31.83-53.08-31.83-53.08Z"/><path class="cls-3" d="M167.43,489.14H332.57c21.81,0,37.39-44.45,37.39-44.45H130S145.62,489.14,167.43,489.14Z"/><path class="cls-4" d="M338.13,33.93l-5.56-23.07H290.69l5.57,23.07S321.85,66.24,328.08,87V444.69s-15.58,44.45-37.39,44.45h41.88c21.81,0,37.39-44.45,37.39-44.45V87C363.72,66.24,338.13,33.93,338.13,33.93Z"/><path class="cls-5" d="M250,10.86h82.57l5.56,23.07S363.72,66.24,370,87V444.69s-15.58,44.45-37.39,44.45H167.43c-21.81,0-37.39-44.45-37.39-44.45V87c6.24-20.77,31.83-53.08,31.83-53.08l5.56-23.07Z"/><line class="cls-6" x1="155.54" y1="10.86" x2="345.62" y2="10.86"/><line class="cls-6" x1="161.03" y1="40.91" x2="338.97" y2="40.91"/><line class="cls-6" x1="130.04" y1="444.69" x2="369.96" y2="444.69"/><line class="cls-6" x1="130.04" y1="87.01" x2="369.96" y2="87.01"/><circle class="cls-7" cx="250" cy="262.1" r="59.98"/><circle class="cls-5" cx="250" cy="262.1" r="59.98"/></svg>