<svg id="Layer_1" data-name="Layer 1" xmlns="http://www.w3.org/2000/svg" viewBox="0 0 500 500"><defs><style>.cls-1{fill:#fdda00;}.cls-2{fill:#fff;}.cls-3{fill:#88451f;opacity:0.3;}.cls-4{fill:none;stroke:#000;stroke-linecap:round;stroke-linejoin:round;stroke-width:20px;}</style></defs><title>beer-5</title><path class="cls-1" d="M250,488.44h66.14S314.85,369,357.8,290.31s8-180.12,8-180.12H134.23s-35,101.45,8,180.12,41.66,198.13,41.66,198.13Z"/><path class="cls-2" d="M250,151.05H375.34c-4-24.57-9.57-40.86-9.57-40.86H134.23s-5.61,16.29-9.57,40.86Z"/><path class="cls-2" d="M182.62,454.91c1.37,20.38,1.24,33.53,1.24,33.53H316.14s-.13-13.15,1.24-33.53Z"/><path class="cls-3" d="M365.77,110.19H324.9s35,101.45-8,180.12-41.66,198.13-41.66,198.13h40.86S314.85,369,357.8,290.31,365.77,110.19,365.77,110.19Z"/><path class="cls-4" d="M171.64,110.19H134.23s-35,101.45,8,180.12,41.66,198.13,41.66,198.13H316.14S314.85,369,357.8,290.31s8-180.12,8-180.12H207.86"/><path class="cls-2" d="M333.25,68.93a32.62,32.62,0,0,0-5.07.51c0-.17,0-.34,0-.51,0-19.22-15.82-34.8-35.34-34.8a37.58,37.58,0,0,0-4.77.35,42.33,42.33,0,0,0-75.24,0,37.31,37.31,0,0,0-4.77-.35c-19.51,0-35.33,15.58-35.33,34.8,0,.17,0,.34,0,.51a32.75,32.75,0,0,0-5.08-.51,32.06,32.06,0,0,0-32.3,31.82,31,31,0,0,0,1.54,9.49h34.69v50.87a18.11,18.11,0,0,0,36.22,0V110.24H364a31.09,31.09,0,0,0,1.57-9.49A32.06,32.06,0,0,0,333.25,68.93Z"/><path class="cls-4" d="M333.25,68.93a32.62,32.62,0,0,0-5.07.51c0-.17,0-.34,0-.51,0-19.22-15.82-34.8-35.34-34.8a37.58,37.58,0,0,0-4.77.35,42.33,42.33,0,0,0-75.24,0,37.31,37.31,0,0,0-4.77-.35c-19.51,0-35.33,15.58-35.33,34.8,0,.17,0,.34,0,.51a32.75,32.75,0,0,0-5.08-.51,32.06,32.06,0,0,0-32.3,31.82,31,31,0,0,0,1.54,9.49h34.69v50.87a18.11,18.11,0,0,0,36.22,0V110.24H364a31.09,31.09,0,0,0,1.57-9.49A32.06,32.06,0,0,0,333.25,68.93Z"/><line class="cls-4" x1="188.62" y1="454.91" x2="317.38" y2="454.91"/></svg>