<svg id="Layer_1" data-name="Layer 1" xmlns="http://www.w3.org/2000/svg" viewBox="0 0 500 500"><defs><style>.cls-1{fill:#C3CEDB;}.cls-2{fill:#4392F1;}.cls-3{fill:#88451f;opacity:0.3;}.cls-4{fill:none;stroke:#000;stroke-linecap:round;stroke-linejoin:round;stroke-width:20px;}</style></defs><title>beer-3</title><path class="cls-1" d="M334.44,402.73H379.9a51.61,51.61,0,0,0,51.61-51.61V196.94a51.61,51.61,0,0,0-51.61-51.61H334.44v38.09H374.8a19.94,19.94,0,0,1,19.94,19.94V344.7a19.94,19.94,0,0,1-19.94,19.94H334.44Z"/><path class="cls-2" d="M68.49,118.36H334.44a0,0,0,0,1,0,0V471.29a18.4,18.4,0,0,1-18.4,18.4H86.89a18.4,18.4,0,0,1-18.4-18.4V118.36A0,0,0,0,1,68.49,118.36Z"/><path class="cls-1" d="M68.49,471.29a18.4,18.4,0,0,0,18.4,18.4H316a18.4,18.4,0,0,0,18.4-18.4v-15.1H68.49Z"/><rect class="cls-1" x="68.49" y="118.36" width="265.95" height="41.37"/><path class="cls-3" d="M293.07,118.36V471.29a18.4,18.4,0,0,1-18.4,18.4H316a18.4,18.4,0,0,0,18.4-18.4V118.36Z"/><path class="cls-4" d="M155.5,118.36H334.44V471.29a18.4,18.4,0,0,1-18.4,18.4H86.89a18.4,18.4,0,0,1-18.4-18.4V118.36h47.94"/><path class="cls-1" d="M290.73,73.13a35.08,35.08,0,0,0-5.47.55c0-.18,0-.36,0-.55A38.11,38.11,0,0,0,247.18,35a39.76,39.76,0,0,0-5.15.38,45.34,45.34,0,0,0-81.14,0,39.47,39.47,0,0,0-5.14-.38,38.1,38.1,0,0,0-38.11,38.1c0,.19,0,.37,0,.55a35.2,35.2,0,0,0-5.47-.55A34.84,34.84,0,0,0,77.36,108,34.25,34.25,0,0,0,79,118.36h37.41v55.7a19.54,19.54,0,1,0,39.07,0v-55.7H323.87a34.55,34.55,0,0,0-33.14-45.23Z"/><path class="cls-4" d="M290.73,73.13a35.08,35.08,0,0,0-5.47.55c0-.18,0-.36,0-.55A38.11,38.11,0,0,0,247.18,35a39.76,39.76,0,0,0-5.15.38,45.34,45.34,0,0,0-81.14,0,39.47,39.47,0,0,0-5.14-.38,38.1,38.1,0,0,0-38.11,38.1c0,.19,0,.37,0,.55a35.2,35.2,0,0,0-5.47-.55A34.84,34.84,0,0,0,77.36,108,34.25,34.25,0,0,0,79,118.36h37.41v55.7a19.54,19.54,0,1,0,39.07,0v-55.7H323.87a34.55,34.55,0,0,0-33.14-45.23Z"/><path class="cls-4" d="M334.44,402.73H379.9a51.61,51.61,0,0,0,51.61-51.61V196.94a51.61,51.61,0,0,0-51.61-51.61H334.44v38.09H374.8a19.94,19.94,0,0,1,19.94,19.94V344.7a19.94,19.94,0,0,1-19.94,19.94H334.44Z"/><line class="cls-4" x1="68.49" y1="456.44" x2="334.44" y2="456.44"/></svg>
