<svg id="Layer_1" data-name="Layer 1" xmlns="http://www.w3.org/2000/svg" viewBox="0 0 500 500"><defs><style>.cls-1{fill:#fdda00;}.cls-2,.cls-7{fill:#fff;}.cls-3{fill:#9fcd5a;}.cls-4{fill:#88451f;opacity:0.3;}.cls-5{fill:none;}.cls-5,.cls-7{stroke:#000;stroke-linecap:round;stroke-linejoin:round;stroke-width:20px;}.cls-6{fill:#80572c;}</style></defs><title>beer-bottle-1</title><path class="cls-1" d="M324.45,317.62c1.18-36.06-8.22-60.48-15.94-74.25a86.39,86.39,0,0,1-10.36-35.47c-4-51-19.6-163.46-19.6-163.46h-57.1s-15.56,112.42-19.6,163.46a86.39,86.39,0,0,1-10.36,35.47c-7.72,13.77-17.12,38.19-15.94,74.25,1.49,45.86.65,116,.16,153-.13,10.21,7.49,18.52,16.95,18.52H307.34c9.46,0,17.08-8.31,17-18.52C323.8,433.59,323,363.48,324.45,317.62Z"/><path class="cls-2" d="M207.66,151.85h84.68c-6-51-13.79-107.41-13.79-107.41h-57.1S213.65,100.82,207.66,151.85Z"/><path class="cls-3" d="M324,447.6c-.44-38.6-.78-92.41.44-130a169.34,169.34,0,0,0-1.68-30.21c-10.88-5.43-43.91-20.62-73.64-20.62-28.68,0-60,14.11-71.8,20a167.94,167.94,0,0,0-1.78,30.83c1.23,37.77.87,91.93.44,130.57C189.58,453.71,242.45,471,324,447.6Z"/><path class="cls-4" d="M324.45,317.62c1.18-36.06-8.22-60.48-15.94-74.25a86.39,86.39,0,0,1-10.36-35.47c-4-51-19.6-163.46-19.6-163.46H245s15.56,112.42,19.6,163.46a86.39,86.39,0,0,0,10.36,35.47c7.71,13.77,17.12,38.19,15.94,74.25-1.49,45.86-.65,116-.16,153,.13,10.21-7.5,18.52-16.95,18.52h33.58c9.46,0,17.08-8.31,17-18.52C323.8,433.59,323,363.48,324.45,317.62Z"/><path class="cls-5" d="M324.45,317.62c1.18-36.06-8.22-60.48-15.94-74.25a86.39,86.39,0,0,1-10.36-35.47c-4-51-19.6-163.46-19.6-163.46h-57.1s-15.56,112.42-19.6,163.46a86.39,86.39,0,0,1-10.36,35.47c-7.72,13.77-17.12,38.19-15.94,74.25,1.49,45.86.65,116,.16,153-.13,10.21,7.49,18.52,16.95,18.52H307.34c9.46,0,17.08-8.31,17-18.52C323.8,433.59,323,363.48,324.45,317.62Z"/><path class="cls-6" d="M231.72,10.86H266.6a20.68,20.68,0,0,1,20.68,20.68v12.9a0,0,0,0,1,0,0H211a0,0,0,0,1,0,0V31.54A20.68,20.68,0,0,1,231.72,10.86Z"/><path class="cls-5" d="M231.72,10.86H266.6a20.68,20.68,0,0,1,20.68,20.68v12.9a0,0,0,0,1,0,0H211a0,0,0,0,1,0,0V31.54A20.68,20.68,0,0,1,231.72,10.86Z"/><line class="cls-7" x1="217.07" y1="76.93" x2="282.93" y2="76.93"/><circle class="cls-6" cx="250.37" cy="361.08" r="30.23"/><circle class="cls-5" cx="250.37" cy="361.08" r="30.23"/><path class="cls-5" d="M324,447.6c-.44-38.6-.78-92.41.44-130a169.34,169.34,0,0,0-1.68-30.21c-10.88-5.43-43.91-20.62-73.64-20.62-28.68,0-60,14.11-71.8,20a167.94,167.94,0,0,0-1.78,30.83c1.23,37.77.87,91.93.44,130.57C189.58,453.71,242.45,471,324,447.6Z"/></svg>