<svg id="Layer_1" data-name="Layer 1" xmlns="http://www.w3.org/2000/svg" viewBox="0 0 500 500"><defs><style>.cls-1{fill:#fdda00;}.cls-2{fill:#fff;}.cls-3{fill:#88451f;opacity:0.3;}.cls-4{fill:none;stroke:#000;stroke-linecap:round;stroke-linejoin:round;stroke-width:20px;}</style></defs><title>beer-1</title><path class="cls-1" d="M250,489.69h75.09a20.26,20.26,0,0,0,20.17-22.49c-4.17-35.11-27.06-43.52-40.83-70.79-25.81-51.09,8.88-105.45,34.12-148.18,34.52-58.44,4.52-177.85,4.52-177.85H156.93s-30,119.41,4.52,177.85c25.24,42.73,59.93,97.09,34.12,148.18-13.77,27.27-36.66,35.68-40.83,70.79a20.26,20.26,0,0,0,20.17,22.49Z"/><path class="cls-2" d="M340.89,449.44H159.11a70.71,70.71,0,0,0-4.37,17.76,20.26,20.26,0,0,0,20.17,22.49H325.09a20.26,20.26,0,0,0,20.17-22.49A70.71,70.71,0,0,0,340.89,449.44Z"/><path class="cls-2" d="M250,111H350.7c-3.44-23.94-7.63-40.62-7.63-40.62H156.93S152.74,87.06,149.3,111Z"/><path class="cls-3" d="M304.43,396.41c-25.81-51.09,8.88-105.45,34.12-148.18,34.52-58.44,4.52-177.85,4.52-177.85H302.45s30,119.41-4.51,177.85C272.7,291,238,345.32,263.81,396.41c13.77,27.27,36.67,35.68,40.83,70.79a20.25,20.25,0,0,1-20.16,22.49h40.61a20.26,20.26,0,0,0,20.17-22.49C341.09,432.09,318.2,423.68,304.43,396.41Z"/><path class="cls-4" d="M195.57,70.38H156.93s-30,119.41,4.52,177.85c25.24,42.73,59.93,97.09,34.12,148.18-13.77,27.27-36.66,35.68-40.83,70.79a20.26,20.26,0,0,0,20.17,22.49H325.09a20.26,20.26,0,0,0,20.17-22.49c-4.17-35.11-27.06-43.52-40.83-70.79-25.81-51.09,8.88-105.45,34.12-148.18,34.52-58.44,4.52-177.85,4.52-177.85H302.45"/><line class="cls-4" x1="159.11" y1="449.44" x2="340.89" y2="449.44"/><path class="cls-2" d="M310.43,38.54a31.91,31.91,0,0,0-10.89,2.06c-2.27-17.09-16.11-30.29-33-30.29a32.29,32.29,0,0,0-21.31,8.24,32.24,32.24,0,0,0-21.3-8.24c-16.26,0-29.79,12.17-32.83,28.3-.22,0-.43-.07-.66-.07-17.42,0-31.56,14-33.17,31.84h38.32v64a17.49,17.49,0,1,0,35,0V115.26c0-9.66,8.37-17.49,18.69-17.49s18.68,7.83,18.68,17.49V111.7a17.49,17.49,0,1,0,35,0V70.38H343.6C342,52.55,327.85,38.54,310.43,38.54Z"/><path class="cls-4" d="M310.43,38.54a31.91,31.91,0,0,0-10.89,2.06c-2.27-17.09-16.11-30.29-33-30.29a32.29,32.29,0,0,0-21.31,8.24,32.24,32.24,0,0,0-21.3-8.24c-16.26,0-29.79,12.17-32.83,28.3-.22,0-.43-.07-.66-.07-17.42,0-31.56,14-33.17,31.84h38.32v64a17.49,17.49,0,1,0,35,0V115.26c0-9.66,8.37-17.49,18.69-17.49s18.68,7.83,18.68,17.49V111.7a17.49,17.49,0,1,0,35,0V70.38H343.6C342,52.55,327.85,38.54,310.43,38.54Z"/></svg>